<svg xmlns="http://www.w3.org/2000/svg" width="1024" height="1024" viewBox="0 0 1024 1024">
  <defs>
    <linearGradient id="bg" x1="0" y1="0" x2="1" y2="1">
      <stop offset="0" stop-color="#3a2a1e"/>
      <stop offset="1" stop-color="#16100c"/>
    </linearGradient>
    <linearGradient id="cup" x1="0" y1="0" x2="0" y2="1">
      <stop offset="0" stop-color="#f4e7d6"/>
      <stop offset="1" stop-color="#d6c2a8"/>
    </linearGradient>
    <linearGradient id="coffee" x1="0" y1="0" x2="1" y2="1">
      <stop offset="0" stop-color="#7a4a24"/>
      <stop offset="1" stop-color="#3f2410"/>
    </linearGradient>
  </defs>
  <rect x="64" y="64" width="896" height="896" rx="200" fill="url(#bg)"/>
  <rect x="64" y="64" width="896" height="896" rx="200" fill="none" stroke="#c8873a" stroke-width="14"/>
  <!-- steam -->
  <g fill="none" stroke="#c8873a" stroke-width="30" stroke-linecap="round" opacity="0.9">
    <path d="M390 300c-40-50 40-90 0-140"/>
    <path d="M500 280c-40-50 40-90 0-140"/>
    <path d="M610 300c-40-50 40-90 0-140"/>
  </g>
  <!-- handle -->
  <path d="M700 460h50c70 0 110 45 110 105s-40 105-110 105h-50" fill="none" stroke="url(#cup)" stroke-width="48"/>
  <!-- cup -->
  <path d="M250 420h470v210c0 110-90 190-235 190S250 740 250 630z" fill="url(#cup)"/>
  <ellipse cx="485" cy="430" rx="235" ry="52" fill="url(#coffee)"/>
  <!-- record dot -->
  <circle cx="770" cy="270" r="62" fill="#b8503f" stroke="#f1e6d8" stroke-width="16"/>
</svg>
